<svg width="27" height="24" viewBox="0 0 27 24" fill="none" xmlns="http://www.w3.org/2000/svg">
<path d="M17.9999 6.12563L12.9214 2.77806C12.6357 2.59925 12.2921 2.53247 11.9587 2.59097C11.6252 2.64947 11.3264 2.82897 11.1214 3.09387C10.946 3.3819 10.8883 3.72455 10.9599 4.05274C11.0314 4.38093 11.227 4.67026 11.5071 4.86239L15.4285 7.45202V12.9471L19.9285 15.9157V19.5159C19.9285 19.8509 20.064 20.1722 20.3051 20.4091C20.5462 20.646 20.8732 20.7791 21.2142 20.7791C21.5552 20.7791 21.8822 20.646 22.1234 20.4091C22.3645 20.1722 22.4999 19.8509 22.4999 19.5159V14.5893L17.9999 11.6207V6.12563Z" fill="#fff"/>
<path d="M22.5001 9.03077V3.53571L17.4215 0.188144C17.1284 0.0158297 16.7796 -0.0408803 16.4456 0.0294464C16.1115 0.099773 15.8171 0.291906 15.6215 0.567114C15.4461 0.855147 15.3884 1.1978 15.46 1.52599C15.5316 1.85418 15.7271 2.1435 16.0072 2.33564L19.9287 4.8621V10.4203L24.4286 13.3258V16.2944C24.4286 16.6294 24.5641 16.9507 24.8052 17.1876C25.0463 17.4245 25.3734 17.5576 25.7144 17.5576C26.0554 17.5576 26.3824 17.4245 26.6235 17.1876C26.8646 16.9507 27.0001 16.6294 27.0001 16.2944V11.9994L22.5001 9.03077Z" fill="#fff"/>
<path d="M12.8571 8.20957L8.99999 5.68311L5.14285 8.20957V12.6309L8.99999 15.1573L12.8571 12.6309V8.20957Z" fill="#fff"/>
<path d="M10.2857 17.0519V21.4732L14.1428 23.9996L18 21.4732V17.0519L14.1428 14.5254L10.2857 17.0519Z" fill="#fff"/>
<path d="M0 17.0523V21.4737L3.85714 24.0001L7.71427 21.4737V17.0523L3.85714 14.5259L0 17.0523Z" fill="#fff"/>
</svg>
