<svg width="25" height="24" viewBox="0 0 25 24" fill="none" xmlns="http://www.w3.org/2000/svg">
<path d="M21.95 13.6396V14.6396C21.95 14.9096 21.74 15.1296 21.46 15.1396H20C19.47 15.1396 18.99 14.7496 18.95 14.2296C18.92 13.9196 19.04 13.6296 19.24 13.4296C19.42 13.2396 19.67 13.1396 19.94 13.1396H21.45C21.74 13.1496 21.95 13.3696 21.95 13.6396Z" fill="#fff"/>
<path d="M18.49 12.6896C17.99 13.1796 17.75 13.9096 17.95 14.6696C18.21 15.5996 19.12 16.1896 20.08 16.1896H20.95C21.5 16.1896 21.95 16.6396 21.95 17.1896V17.3796C21.95 19.4496 20.26 21.1396 18.19 21.1396H6.70995C4.63995 21.1396 2.94995 19.4496 2.94995 17.3796V10.6496C2.94995 9.41965 3.53995 8.32965 4.44995 7.64965C5.07995 7.16965 5.85995 6.88965 6.70995 6.88965H18.19C20.26 6.88965 21.95 8.57965 21.95 10.6496V11.0896C21.95 11.6396 21.5 12.0896 20.95 12.0896H19.93C19.37 12.0896 18.86 12.3096 18.49 12.6896Z" fill="#fff"/>
<path d="M16.7001 4.82C16.9701 5.09 16.7401 5.51 16.3601 5.51L8.68006 5.5C8.24006 5.5 8.01006 4.96 8.33006 4.65L9.95006 3.02C11.3201 1.66 13.5401 1.66 14.9101 3.02L16.6601 4.79C16.6701 4.8 16.6901 4.81 16.7001 4.82Z" fill="#fff"/>
</svg>
